<svg width="65" height="64" viewBox="0 0 65 64" fill="none" xmlns="http://www.w3.org/2000/svg">
<g clip-path="url(#clip0_423_709)">
<path fill-rule="evenodd" clip-rule="evenodd" d="M31.6413 0.436283C32.6896 -0.144288 33.9804 -0.144288 35.0272 0.436283C40.2071 3.30561 55.7948 11.9426 60.9763 14.8119C62.0246 15.3909 62.67 16.4637 62.67 17.6248C62.67 23.3635 62.67 40.6359 62.67 46.3745C62.67 47.5357 62.0246 48.6084 60.9763 49.189C55.7963 52.0583 40.2087 60.6953 35.0272 63.5646C33.9788 64.1452 32.6881 64.1452 31.6413 63.5646C26.4613 60.6953 10.8737 52.0583 5.69217 49.189C4.64537 48.6084 4 47.5372 4 46.376C4 40.6374 4 23.365 4 17.6264C4 16.4652 4.64537 15.3925 5.69371 14.8119C10.8721 11.9426 26.4629 3.30561 31.6413 0.436283Z" fill="#283593"/>
<path fill-rule="evenodd" clip-rule="evenodd" d="M4.46936 47.8541C4.05867 47.3116 4 46.7966 4 46.1032C4 40.3981 4 23.2248 4 17.5181C4 16.3631 4.64383 15.2964 5.68908 14.7204C10.8505 11.8678 26.3857 3.28119 31.5471 0.427095C32.5924 -0.150428 34.0082 -0.138237 35.0534 0.439286C40.2148 3.29185 55.6975 11.8054 60.8589 14.6579C61.2758 14.8896 61.5939 15.1684 61.878 15.5356L4.46936 47.8541Z" fill="#5C6BC0"/>
<path fill-rule="evenodd" clip-rule="evenodd" d="M33.3347 10.6671C45.2648 10.6671 54.95 20.226 54.95 32.0004C54.95 43.7749 45.2648 53.3337 33.3347 53.3337C21.4047 53.3337 11.7195 43.7749 11.7195 32.0004C11.7195 20.226 21.4047 10.6671 33.3347 10.6671ZM33.3347 21.3338C39.299 21.3338 44.1424 26.1124 44.1424 32.0004C44.1424 37.8869 39.299 42.6671 33.3347 42.6671C27.3705 42.6671 22.5271 37.8869 22.5271 32.0004C22.5271 26.1124 27.3689 21.3338 33.3347 21.3338Z" fill="white"/>
<path fill-rule="evenodd" clip-rule="evenodd" d="M61.8748 15.5509C62.6715 16.2869 62.656 17.3962 62.656 18.2694C62.656 24.0522 62.6066 40.5002 62.6699 46.2831C62.6761 46.8865 62.4738 47.5219 62.1712 48.0004L32.7065 32.0004L61.8748 15.5509Z" fill="#3949AB"/>
</g>
<defs>
<clipPath id="clip0_423_709">
<rect width="64" height="64" fill="white" transform="translate(0.844727)"/>
</clipPath>
</defs>
</svg>
